HIERARCHY
ROOT Hips
{
  OFFSET -35.2597 29.1586 114.425
  CHANNELS 6 Xposition Yposition Zposition Zrotation Xrotation Yrotation
  JOINT LeftUpLeg
  {
    OFFSET 8.64259 1.95398 -2.38835
    CHANNELS 3 Zrotation Xrotation Yrotation
    JOINT LeftLeg
    {
      OFFSET 43.7702 0 0
      CHANNELS 3 Zrotation Xrotation Yrotation
      JOINT LeftFoot
      {
        OFFSET 40.6238 0 0
        CHANNELS 3 Zrotation Xrotation Yrotation
        JOINT LeftToeBase
        {
          OFFSET 12.7242 0 0
          CHANNELS 3 Zrotation Xrotation Yrotation
          End Site
          {
            OFFSET 0 0 0
          }
        }
      }
    }
  }
  JOINT RightUpLeg
  {
    OFFSET -8.2249 1.95398 -2.59336
    CHANNELS 3 Zrotation Xrotation Yrotation
    JOINT RightLeg
    {
      OFFSET 43.5653 0 0
      CHANNELS 3 Zrotation Xrotation Yrotation
      JOINT RightFoot
      {
        OFFSET 40.6238 0 0
        CHANNELS 3 Zrotation Xrotation Yrotation
        JOINT RightToeBase
        {
          OFFSET 12.7242 0 0
          CHANNELS 3 Zrotation Xrotation Yrotation
          End Site
          {
            OFFSET 0 0 0
          }
        }
      }
    }
  }
  JOINT Spine
  {
    OFFSET 0.165834 0.87714 6.61349
    CHANNELS 3 Zrotation Xrotation Yrotation
    JOINT Spine1
    {
      OFFSET 7.38963 1.71661e-005 0
      CHANNELS 3 Zrotation Xrotation Yrotation
      JOINT Spine2
      {
        OFFSET 11.9445 1.14441e-005 0
        CHANNELS 3 Zrotation Xrotation Yrotation
        JOINT Spine3
        {
          OFFSET 14.7254 4.19617e-005 0
          CHANNELS 3 Zrotation Xrotation Yrotation
          JOINT Spine4
          {
            OFFSET 10.9679 0 0
            CHANNELS 3 Zrotation Xrotation Yrotation
            JOINT RightShoulder
            {
              OFFSET 2.46616 -1.6653 3.69651
              CHANNELS 3 Zrotation Xrotation Yrotation
              JOINT RightArm
              {
                OFFSET 13.0012 0 0
                CHANNELS 3 Zrotation Xrotation Yrotation
                JOINT RightForeArm
                {
                  OFFSET 28.7848 1.62311e-005 0
                  CHANNELS 3 Zrotation Xrotation Yrotation
                  JOINT RightHand
                  {
                    OFFSET 26.5688 1.62095e-005 0
                    CHANNELS 3 Zrotation Xrotation Yrotation
                    End Site
                    {
                      OFFSET 0 0 0
                    }
                  }
                }
              }
            }
            JOINT LeftShoulder
            {
              OFFSET 2.38034 -1.29275 -3.7523
              CHANNELS 3 Zrotation Xrotation Yrotation
              JOINT LeftArm
              {
                OFFSET 16.3182 6.07031e-005 0
                CHANNELS 3 Zrotation Xrotation Yrotation
                JOINT LeftForeArm
                {
                  OFFSET 27.0901 0 0
                  CHANNELS 3 Zrotation Xrotation Yrotation
                  JOINT LeftHand
                  {
                    OFFSET 24.5451 1.51738e-005 0
                    CHANNELS 3 Zrotation Xrotation Yrotation
                    End Site
                    {
                      OFFSET 0 0 0
                    }
                  }
                }
              }
            }
            JOINT Neck
            {
              OFFSET 5.0226 -0.0266342 0
              CHANNELS 3 Zrotation Xrotation Yrotation
              JOINT Head
              {
                OFFSET 6.69364 2.86102e-005 0
                CHANNELS 3 Zrotation Xrotation Yrotation
                End Site
                {
                  OFFSET 0 0 0
                }
              }
            }
          }
        }
      }
    }
  }
}
MOTION
Frames:	6
Frame Time:	0.0416667
45.3449 101.531 -246.277 -113.84 -82.1068 -116.37 -174.436 -3.30102 90.3 -6.85168 14.1213 0.000894473 66.6835 5.94148 2.92703 21.6505 -8.97087 8.88244 174.124 -2.12509 90.17 -12.627 -7.88565 -0.0200406 69.219 -4.88266 2.19711 25.742 1.28653 0.0461082 0.512921 7.55759 -90.0039 11.7596 1.01835 -0.115246 0.0890871 1.0123 -0.159962 -22.4492 1.0059 0.196179 -2.43656 1.0059 0.196173 91.4105 -33.7982 -102.724 47.201 5.52919 -6.02558 -6.02642 -51.111 -5.92969 -21.245 2.34401 -18.069 -85.8032 -57.6149 86.0482 -25.794 -12.2353 -17.6001 4.64291 54.1505 -5.72742 1.52876 -0.53629 -17.4021 5.12597 0.552268 0.537474 -10.2873 0.59533 -1.84964 
44.885 101.528 -246.193 -113.206 -82.3288 -115.996 -174.624 -2.85741 90.1775 -7.44964 11.8094 0.211688 67.1249 6.11993 1.085 22.1886 -6.52217 5.46093 174.019 -2.02903 90.2132 -12.4519 -8.85851 0.119035 68.6497 -4.80085 0.472981 26.5241 0.663484 0.938793 0.326513 7.50581 -89.9923 11.8628 0.652955 -0.0543869 0.191992 0.64993 -0.0830843 -22.3445 0.639116 0.144375 -2.33183 0.639106 0.144362 89.2852 -33.8818 -106.696 45.732 6.47563 -4.91907 -6.23265 -53.2035 -6.08135 -21.2374 2.82777 -20.6932 -85.2722 -58.3762 86.873 -24.7784 -12.8575 -16.1047 4.5107 52.8268 -5.59414 2.70839 -0.550915 -14.6274 3.08725 1.7752 1.64245 -9.02977 1.64258 -2.34235 
44.1635 101.54 -246.178 -112.333 -82.1974 -115.395 -174.822 -2.52689 90.3225 -8.2294 10.2467 0.610337 66.9809 5.50159 -1.51604 24.6055 -7.43832 9.49926 174.026 -2.21662 90.3348 -12.2728 -8.65296 0.209719 68.8225 -5.06764 0.714934 26.5366 0.629904 1.0284 0.36567 7.53471 -89.9315 11.8044 0.759436 0.0557436 0.133651 0.761143 0.0222534 -22.4031 0.70756 0.281413 -2.39043 0.707569 0.281414 89.2171 -34.8563 -106.472 44.8393 6.81731 -5.05591 -6.12636 -52.1484 -6.00237 -20.0345 2.69518 -20.9109 -85.1895 -57.1225 86.842 -25.5821 -12.4844 -15.7579 4.4408 52.1328 -5.52383 5.41608 -0.716343 -13.8102 2.97393 1.53124 0.0107332 -9.3504 1.58208 -0.938688 
43.4412 101.387 -246.174 -110.722 -82.0371 -114.09 -174.577 -2.35226 90.5639 -8.32775 9.97923 0.428982 66.8528 5.7617 -1.72137 25.5248 -6.78392 9.39929 174.494 -1.64619 90.727 -13.3837 -8.1714 -0.166651 69.8201 -5.37203 0.775119 25.7397 1.05566 0.750327 0.426891 7.57554 -89.8963 11.7227 0.89776 0.112321 0.0520438 0.901836 0.0726913 -22.4852 0.822497 0.37696 -2.47261 0.822496 0.376958 89.1174 -34.8952 -106.642 44.845 6.78637 -5.16432 -6.11484 -52.0325 -5.99396 -21.1643 2.71795 -20.1738 -85.2224 -56.4727 86.7195 -25.9684 -12.2916 -15.7963 4.31793 50.7838 -5.39975 7.13292 -0.804702 -12.9257 2.69071 1.32634 -0.100377 -9.09895 1.41763 -1.26469 
42.7383 101.095 -246.165 -112.996 -82.443 -116.7 -174.796 -1.53986 90.5325 -10.3991 9.67187 0.694322 67.8385 6.90389 -2.06499 26.1979 -6.56902 9.77587 174.214 -0.865905 90.6993 -15.4587 -8.31962 0.131349 70.8942 -5.76789 0.106416 25.6582 0.846013 1.4928 0.447471 7.62681 -89.7847 11.619 0.991026 0.326274 -0.0515608 1.00443 0.282318 -22.5887 0.847143 0.609041 -2.57611 0.84715 0.609041 89.1317 -36.001 -106.23 44.9789 6.6696 -5.39166 -6.13198 -52.204 -6.00656 -21.4304 2.67377 -19.7227 -85.2241 -55.5551 86.6074 -25.2658 -12.6384 -15.7811 4.18869 49.2818 -5.26953 6.26386 -0.775089 -13.4171 1.92256 0.831807 -1.85679 -8.35637 1.11135 0.0434828 
42.0752 100.603 -246.266 -120.239 -82.6044 -123.823 -175.269 0.861876 91.7014 -17.3283 8.81762 1.06565 69.6254 8.6009 -2.47233 28.0586 -5.69434 10.3386 173.862 -0.167416 90.979 -18.8762 -7.7683 0.629329 72.8092 -6.17052 0.00331473 25.4226 0.748191 2.06591 0.526147 7.7843 -89.8541 11.3048 1.11507 0.179569 -0.36563 1.12189 0.130317 -22.904 1.00954 0.506421 -2.89133 1.00954 0.506421 89.1913 -35.087 -106.438 45.7753 6.4004 -5.1254 -6.34779 -54.291 -6.16834 -22.1406 2.445 -18.0484 -85.051 -57.1108 87.0336 -23.3052 -13.5775 -16.1956 4.04974 47.4211 -5.13017 5.08705 -0.771955 -14.8231 1.25055 0.532674 0.0577346 -7.9346 0.615782 -1.61402 
